{"title":"Mannheim Steamroller - Christmas Extraordinaire 2001 [EAC CUE FL","uid":3947149,"size":319922322,"categoryP":"audio","categoryS":"music","magnet":"?xt=urn:btih:6870a284d744542f8b6f3ca84f2953ce6c3e94dc&amp;dn=Mannheim+Steamroller+-+Christmas+Extraordinaire+2001+%5BEAC+CUE+FL&amp;tr=udp%3A%2F%2Ftracker.openbittorrent.com%3A80&amp;tr=udp%3A%2F%2Fopen.demonii.com%3A1337&amp;tr=udp%3A%2F%2Ftracker.coppersurfer.tk%3A6969&amp;tr=udp%3A%2F%2Fexodus.desync.com%3A6969","seeders":0,"leechers":3,"uploader":"LadyAbagail","files":20,"time":1198574301,"description":"Exact Audio Copy V0.99 prebeta 3 from 28. July 2007\n\nEAC extraction logfile from 23. December 2007, 14:42\n\nMannheim Steamroller / Christmas Extraordinaire\n\nUsed drive  : SONY    DVD RW DW-D26A   Adapter: 1  ID: 0\n\nRead mode               : Secure\nUtilize accurate stream : Yes\nDefeat audio cache      : Yes\nMake use of C2 pointers : Yes\n\nRead offset correction                      : 12\nOverread into Lead-In and Lead-Out          : No\nFill up missing offset samples with silence : Yes\nDelete leading and trailing silent blocks   : No\nNull samples used in CRC calculations       : No\nUsed interface                              : Native Win32 interface for Win NT &amp; 2000\nGap handling                                : Not detected, thus appended to previous track\n\nUsed output format              : User Defined Encoder\nSelected bitrate                : 768 kBit/s\nQuality                         : High\nAdd ID3 tag                     : No\nCommand line compressor         : C:Program FilesExact Audio CopyFLACFLAC.EXE\nAdditional command line options : -8 -A tukey(0.25) -A gauss(0.1875) -V -T &quot;artist=%a&quot; -T &quot;title=%t&quot; -T &quot;album=%g&quot; -T &quot;date=%y&quot; -T &quot;tracknumber=%n&quot; -T &quot;genre=%m&quot; %s\n\n\nTOC of the extracted CD\n\n     Track |   Start  |  Length  | Start sector | End sector \n    ---------------------------------------------------------\n        1  |  0:00.43 |  4:43.34 |        43    |    21301   \n        2  |  4:44.02 |  3:35.11 |     21302    |    37437   \n        3  |  8:19.13 |  3:23.36 |     37438    |    52698   \n        4  | 11:42.49 |  2:29.46 |     52699    |    63919   \n        5  | 14:12.20 |  4:06.40 |     63920    |    82409   \n        6  | 18:18.60 |  3:38.72 |     82410    |    98831   \n        7  | 21:57.57 |  4:28.35 |     98832    |   118966   \n        8  | 26:26.17 |  4:51.64 |    118967    |   140855   \n        9  | 31:18.06 |  3:34.04 |    140856    |   156909   \n       10  | 34:52.10 |  3:42.13 |    156910    |   173572   \n       11  | 38:34.23 |  3:01.43 |    173573    |   187190   \n       12  | 41:35.66 |  3:42.48 |    187191    |   203888   \n\n\nTrack  1\n\n     Filename Z:roxaudiomusicflacMannheim SteamrollerChristmas ExtraordinaireMannheim_Steamroller_-_Christmas_Extraordinaire_-_01_-_Hallelujah.wav\n\n     Peak level 84.1 %\n     Track quality 100.0 %\n     Test CRC 70490640\n     Copy CRC 70490640\n     Accurately ripped (confidence 43)  [F7C6A77A]\n     Copy OK\n\nTrack  2\n\n     Filename Z:roxaudiomusicflacMannheim SteamrollerChristmas ExtraordinaireMannheim_Steamroller_-_Christmas_Extraordinaire_-_02_-_White_Christmas.wav\n\n     Peak level 91.9 %\n     Track quality 99.9 %\n     Test CRC 1C61145A\n     Copy CRC 1C61145A\n     Accurately ripped (confidence 42)  [C07233F0]\n     Copy OK\n\nTrack  3\n\n     Filename Z:roxaudiomusicflacMannheim SteamrollerChristmas ExtraordinaireMannheim_Steamroller_-_Christmas_Extraordinaire_-_03_-_Away_In_A_Manger.wav\n\n     Peak level 85.5 %\n     Track quality 100.0 %\n     Test CRC C805D451\n     Copy CRC C805D451\n     Accurately ripped (confidence 42)  [0E5FE3FD]\n     Copy OK\n\nTrack  4\n\n     Filename Z:roxaudiomusicflacMannheim SteamrollerChristmas ExtraordinaireMannheim_Steamroller_-_Christmas_Extraordinaire_-_04_-_Faeries.wav\n\n     Peak level 80.0 %\n     Track quality 100.0 %\n     Test CRC 67DB59AA\n     Copy CRC 67DB59AA\n     Accurately ripped (confidence 41)  [55DD8996]\n     Copy OK\n\nTrack  5\n\n     Filename Z:roxaudiomusicflacMannheim SteamrollerChristmas ExtraordinaireMannheim_Steamroller_-_Christmas_Extraordinaire_-_05_-_Do_You_Hear_What_I_Hear_.wav\n\n     Peak level 80.0 %\n     Track quality 100.0 %\n     Test CRC 6604CB13\n     Copy CRC 6604CB13\n     Accurately ripped (confidence 42)  [F12B4AA1]\n     Copy OK\n\nTrack  6\n\n     Filename Z:roxaudiomusicflacMannheim SteamrollerChristmas ExtraordinaireMannheim_Steamroller_-_Christmas_Extraordinaire_-_06_-_The_First_Noel.wav\n\n     Peak level 61.3 %\n     Track quality 99.9 %\n     Test CRC 50B822BF\n     Copy CRC 50B822BF\n     Accurately ripped (confidence 17)  [78354277]\n     Copy OK\n\nTrack  7\n\n     Filename Z:roxaudiomusicflacMannheim SteamrollerChristmas ExtraordinaireMannheim_Steamroller_-_Christmas_Extraordinaire_-_07_-_Silver_Bells.wav\n\n     Peak level 63.7 %\n     Track quality 100.0 %\n     Test CRC 952C3D84\n     Copy CRC 952C3D84\n     Accurately ripped (confidence 42)  [FBD877FC]\n     Copy OK\n\nTrack  8\n\n     Filename Z:roxaudiomusicflacMannheim SteamrollerChristmas ExtraordinaireMannheim_Steamroller_-_Christmas_Extraordinaire_-_08_-_Fum,_Fum,_Fum.wav\n\n     Peak level 87.6 %\n     Track quality 100.0 %\n     Test CRC FC7118AD\n     Copy CRC FC7118AD\n     Accurately ripped (confidence 41)  [014C3ED5]\n     Copy OK\n\nTrack  9\n\n     Filename Z:roxaudiomusicflacMannheim SteamrollerChristmas ExtraordinaireMannheim_Steamroller_-_Christmas_Extraordinaire_-_09_-_Some_Children_See_Him.wav\n\n     Peak level 60.9 %\n     Track quality 100.0 %\n     Test CRC 1D7C85A7\n     Copy CRC 1D7C85A7\n     Accurately ripped (confidence 42)  [B2BE1B9E]\n     Copy OK\n\nTrack 10\n\n     Filename Z:roxaudiomusicflacMannheim SteamrollerChristmas ExtraordinaireMannheim_Steamroller_-_Christmas_Extraordinaire_-_10_-_Winter_Wonderland.wav\n\n     Peak level 91.2 %\n     Track quality 100.0 %\n     Test CRC 41107B12\n     Copy CRC 41107B12\n     Accurately ripped (confidence 42)  [A0B14FA6]\n     Copy OK\n\nTrack 11\n\n     Filename Z:roxaudiomusicflacMannheim SteamrollerChristmas ExtraordinaireMannheim_Steamroller_-_Christmas_Extraordinaire_-_11_-_O_Tannenbaum.wav\n\n     Peak level 85.3 %\n     Track quality 100.0 %\n     Test CRC A2229CE2\n     Copy CRC A2229CE2\n     Accurately ripped (confidence 42)  [71D5C041]\n     Copy OK\n\nTrack 12\n\n     Filename Z:roxaudiomusicflacMannheim SteamrollerChristmas ExtraordinaireMannheim_Steamroller_-_Christmas_Extraordinaire_-_12_-_Auld_Lang_Syne.wav\n\n     Peak level 86.5 %\n     Track quality 100.0 %\n     Test CRC 81FB8C06\n     Copy CRC 81FB8C06\n     Accurately ripped (confidence 39)  [E6D34434]\n     Copy OK\n\n\nAll tracks accurately ripped\n\nNo errors occurred\n\nEnd of status report\n","torrent":{"xt":"urn:btih:6870a284d744542f8b6f3ca84f2953ce6c3e94dc","amp;dn":"Mannheim+Steamroller+-+Christmas+Extraordinaire+2001+%5BEAC+CUE+FL","amp;tr":["udp%3A%2F%2Ftracker.openbittorrent.com%3A80","udp%3A%2F%2Fopen.demonii.com%3A1337","udp%3A%2F%2Ftracker.coppersurfer.tk%3A6969","udp%3A%2F%2Fexodus.desync.com%3A6969"],"infoHash":"6870a284d744542f8b6f3ca84f2953ce6c3e94dc","infoHashBuffer":{"type":"Buffer","data":[104,112,162,132,215,68,84,47,139,111,60,168,79,41,83,206,108,62,148,220]},"announce":[],"urlList":[]}}